<?xml version="1.0" standalone="no"?>
<!DOCTYPE svg PUBLIC "-//W3C//DTD SVG 20010904//EN"
 "http://www.w3.org/TR/2001/REC-SVG-20010904/DTD/svg10.dtd">
<svg version="1.0" xmlns="http://www.w3.org/2000/svg"
 width="300.000000pt" height="279.000000pt" viewBox="0 0 300.000000 279.000000"
 preserveAspectRatio="xMidYMid meet">
<metadata>
Created by potrace 1.10, written by Peter Selinger 2001-2011
</metadata>
<g transform="translate(0.000000,279.000000) scale(0.100000,-0.100000)"
fill="#000000" stroke="none">
<path d="M655 2612 c-45 -9 -102 -91 -89 -126 5 -14 -9 -16 -113 -16 -108 0
-123 -2 -154 -23 -73 -48 -69 -9 -67 -808 l3 -715 25 -37 c15 -22 39 -42 60
-49 44 -16 592 -18 587 -3 -2 6 -76 11 -188 12 -101 2 -220 4 -264 6 -80 4
-155 26 -155 47 0 6 -6 8 -13 4 -6 -4 -9 -4 -5 0 4 5 2 20 -3 34 -6 16 -10
281 -9 709 1 726 2 748 48 768 12 5 22 13 22 18 0 4 42 7 93 7 50 -1 101 1
112 6 33 12 55 36 55 60 0 14 12 31 32 45 29 21 43 23 182 24 83 1 156 -2 163
-7 6 -5 14 -5 18 2 4 7 218 10 687 10 603 0 679 -2 674 -16 -3 -8 0 -14 7 -13
6 1 17 1 23 0 13 -1 34 -45 34 -70 0 -28 44 -41 141 -41 99 0 135 -12 163 -54
15 -23 16 -91 16 -744 l-1 -719 -22 -19 c-64 -56 -51 -55 -826 -56 l-224 0
-24 -24 c-14 -14 -22 -31 -19 -39 4 -13 -14 -15 -115 -15 -112 0 -121 1 -126
20 -8 30 -23 24 -23 -10 l0 -30 146 0 146 0 -4 38 -3 37 511 2 c560 1 555 1
599 61 20 26 20 45 23 753 l2 725 -23 35 c-37 55 -76 69 -199 69 l-106 0 -7
40 c-8 50 -52 95 -100 104 -38 7 -1656 6 -1690 -2z"/>
<path d="M830 2540 c-69 -3 -134 -10 -144 -16 -26 -16 -25 -69 1 -96 20 -19
32 -20 426 -22 223 0 409 -5 413 -9 4 -4 1 -7 -7 -7 -8 0 -272 -2 -588 -3
-556 -4 -575 -5 -590 -24 -14 -17 -16 -96 -16 -716 0 -655 1 -697 18 -714 21
-21 -107 -18 1254 -28 562 -4 1035 -4 1052 0 17 4 29 11 25 16 -3 5 -1 9 4 9
26 0 32 74 32 424 0 198 -3 503 -7 676 -8 396 14 360 -217 360 -99 0 -167 4
-171 10 -3 6 1 10 10 10 8 0 21 11 27 25 6 14 16 25 22 25 6 0 3 5 -6 11 -10
5 -18 16 -18 23 0 7 -8 20 -18 30 -17 15 -76 16 -682 16 -364 0 -665 2 -668 5
-3 3 -10 4 -16 3 -6 -1 -67 -5 -136 -8z m1494 -26 c20 -8 21 -57 3 -73 -20
-16 -1614 -16 -1633 0 -17 14 -18 51 -2 67 9 9 204 12 814 12 441 0 809 -3
818 -6z m341 -864 l0 -705 -1157 -3 c-923 -2 -1158 0 -1158 10 0 11 0 1378 0
1401 0 4 521 6 1158 5 l1157 -3 0 -705z"/>
<path d="M1503 2317 c1 -15 5 -27 8 -27 3 0 25 -39 48 -87 23 -49 47 -96 52
-106 5 -10 7 -22 4 -27 -4 -6 -2 -10 3 -10 5 0 9 -6 10 -12 1 -16 4 -27 25
-98 24 -83 40 -271 32 -380 -7 -102 -49 -318 -65 -334 -6 -6 -10 -18 -10 -27
0 -9 -7 -22 -15 -29 -16 -14 -21 -35 -6 -25 6 3 -12 -35 -40 -84 -51 -93 -64
-134 -28 -91 30 36 103 184 127 260 87 267 84 583 -6 835 -29 83 -92 210 -120
245 l-20 25 1 -28z"/>
<path d="M2032 2108 c-19 -19 -14 -45 10 -62 24 -17 75 -20 206 -9 76 5 83 8
88 30 12 47 -7 53 -155 53 -93 0 -141 -4 -149 -12z m253 -18 c38 0 21 -19 -23
-24 -17 -3 -36 -7 -41 -10 -16 -10 -41 5 -41 26 0 18 4 20 38 14 20 -3 50 -6
67 -6z m-128 -13 c-2 -7 -22 -11 -48 -10 -54 2 -51 1 -45 11 8 14 98 12 93 -1z"/>
<path d="M840 2059 c-30 -10 -55 -19 -56 -19 -1 0 -28 -20 -60 -45 -56 -44
-123 -119 -124 -140 0 -5 7 2 16 15 81 121 209 189 359 189 208 1 369 -138
405 -349 18 -106 -7 -205 -76 -306 -37 -53 -110 -115 -158 -134 -16 -6 -26
-13 -23 -17 13 -12 114 51 160 100 52 56 107 159 107 202 0 14 5 35 10 45 12
22 -2 128 -25 198 -42 122 -153 228 -275 260 -83 22 -199 23 -260 1z"/>
<path d="M1867 1893 c-12 -11 -8 -44 7 -59 8 -8 32 -14 53 -13 l38 1 -42 9
c-47 11 -64 37 -37 56 15 11 15 13 3 13 -9 0 -19 -3 -22 -7z"/>
<path d="M2478 1888 c18 -18 15 -48 -5 -48 -10 0 -25 -5 -33 -10 -11 -8 -7 -9
15 -4 45 10 59 27 46 53 -7 11 -17 21 -23 21 -9 0 -9 -3 0 -12z"/>
<path d="M940 1830 c-19 -4 -48 -14 -63 -22 -33 -18 -77 -75 -77 -97 1 -12 4
-10 13 5 37 63 92 104 141 104 14 0 28 5 31 10 7 11 6 11 -45 0z"/>
<path d="M1976 1832 c-2 -4 81 -7 185 -7 104 0 189 3 189 8 0 9 -368 8 -374
-1z"/>
<path d="M1036 1811 c75 -34 121 -115 110 -195 -4 -35 -4 -37 5 -16 11 26 5
120 -8 129 -5 3 -16 18 -26 33 -17 28 -84 69 -109 67 -7 0 5 -9 28 -18z"/>
<path d="M546 1714 c-9 -67 -7 -113 5 -157 15 -56 18 -42 7 31 -6 40 -6 84 0
118 5 30 6 54 2 54 -4 0 -10 -21 -14 -46z"/>
<path d="M1872 1718 c-7 -7 -12 -19 -12 -28 0 -38 16 -40 295 -38 l270 3 -265
2 c-234 3 -266 5 -277 20 -11 14 -10 20 4 35 18 20 4 25 -15 6z"/>
<path d="M2465 1720 c4 -6 11 -8 16 -5 5 4 9 -5 9 -19 0 -14 -4 -26 -10 -26
-5 0 -10 -5 -10 -12 0 -7 9 -3 21 9 17 17 19 24 10 42 -7 11 -19 21 -27 21 -8
0 -12 -5 -9 -10z"/>
<path d="M1120 1569 c0 -7 -15 -28 -32 -47 -22 -22 -26 -31 -13 -24 37 19 71
67 55 77 -5 3 -10 1 -10 -6z"/>
<path d="M1883 1550 c-44 -18 -18 -76 29 -67 21 4 20 4 -4 6 -45 2 -48 38 -5
59 27 13 11 14 -20 2z"/>
<path d="M2153 1553 c53 -2 141 -2 195 0 53 1 9 3 -98 3 -107 0 -151 -2 -97
-3z"/>
<path d="M2470 1551 c0 -6 5 -13 10 -16 18 -11 11 -35 -12 -45 l-23 -9 22 0
c20 -1 43 24 43 46 0 4 -9 14 -20 21 -11 7 -20 8 -20 3z"/>
<path d="M894 1484 c30 -17 128 -25 142 -11 13 12 -2 18 -26 9 -22 -8 -77 -2
-125 13 -11 3 -7 -1 9 -11z"/>
<path d="M2078 1483 c61 -2 163 -2 225 0 61 1 11 3 -113 3 -124 0 -174 -2
-112 -3z"/>
<path d="M617 1412 c21 -38 78 -99 108 -114 11 -6 0 9 -25 33 -25 24 -58 60
-73 79 l-29 35 19 -33z"/>
<path d="M1871 1093 c-20 -17 -21 -19 -6 -40 9 -13 26 -23 38 -22 19 0 19 2
-5 11 -16 5 -28 15 -28 23 0 16 25 37 33 28 4 -3 7 -1 7 5 0 17 -14 15 -39 -5z"/>
<path d="M2473 1094 c23 -12 26 -18 17 -34 -7 -13 -22 -21 -43 -21 -29 -2 -30
-2 -5 -6 32 -5 68 12 68 32 0 19 -28 45 -48 45 -11 -1 -8 -6 11 -16z"/>
<path d="M2173 1033 c20 -2 54 -2 75 0 20 2 3 4 -38 4 -41 0 -58 -2 -37 -4z"/>
<path d="M970 841 c-8 -6 -12 -11 -7 -11 8 -1 308 -1 357 0 17 0 30 3 30 8 0
11 -363 14 -380 3z"/>
<path d="M967 803 c-11 -10 -8 -73 3 -73 6 0 10 18 10 40 0 41 -2 45 -13 33z"/>
<path d="M395 791 c-4 -7 -4 -16 1 -20 5 -3 21 -31 35 -61 15 -30 50 -85 78
-122 27 -38 48 -68 44 -68 -3 0 6 -9 20 -21 15 -11 26 -24 24 -28 -2 -9 90
-101 102 -101 5 0 22 -15 37 -32 15 -18 30 -32 33 -32 3 1 33 -18 66 -41 63
-45 189 -112 225 -120 38 -8 60 -17 60 -24 0 -5 10 -7 22 -3 15 4 19 2 13 -7
-5 -10 -2 -11 14 -6 11 3 21 2 21 -3 0 -6 9 -8 20 -5 11 3 20 1 20 -5 0 -6 9
-8 20 -5 11 3 20 1 20 -4 0 -5 16 -7 36 -5 50 6 32 17 -66 41 -102 25 -236 74
-259 95 -10 9 -33 21 -52 27 -34 12 -82 41 -107 66 -7 7 -17 13 -20 13 -4 0
-33 24 -65 53 -31 30 -57 52 -57 50 0 -2 -20 18 -45 44 -25 25 -45 49 -45 51
0 3 -15 23 -33 46 -48 60 -107 152 -107 168 0 7 -11 26 -23 42 -18 22 -26 26
-32 17z"/>
<path d="M2575 753 c-32 -61 -44 -80 -77 -124 -15 -20 -25 -39 -22 -41 7 -8
-237 -258 -252 -258 -7 0 -14 -4 -16 -8 -4 -12 -87 -66 -125 -83 -18 -8 -33
-17 -33 -20 0 -4 -12 -11 -27 -18 -16 -6 -41 -16 -58 -22 -16 -7 -41 -14 -54
-15 -13 -2 -27 -8 -31 -14 -4 -7 -10 -11 -14 -11 -3 1 -30 -5 -59 -13 -28 -8
-72 -21 -97 -27 l-45 -13 35 -6 c19 -3 38 -2 41 3 3 4 22 9 42 10 20 1 37 6
37 10 0 5 10 5 21 2 16 -5 19 -4 14 6 -6 9 -2 11 13 7 12 -4 22 -2 22 3 0 10
48 25 68 21 6 -2 12 2 12 8 0 6 5 8 10 5 6 -3 10 -1 10 6 0 7 3 9 7 6 7 -8 90
37 178 96 33 23 61 40 63 39 2 -2 12 8 23 22 11 14 23 25 27 24 9 -2 150 141
145 146 -2 2 8 13 23 25 15 11 24 21 20 21 -4 0 12 24 34 54 37 49 101 167 99
182 0 4 5 11 13 15 10 7 9 9 -4 9 -11 0 -28 -19 -43 -47z"/>
<path d="M520 772 c0 -32 24 -76 54 -96 21 -13 52 -16 173 -15 184 1 176 7
-14 11 -161 4 -171 8 -198 84 -10 29 -14 33 -15 16z"/>
<path d="M1055 740 c-46 -6 -47 -7 -12 -8 20 -1 37 -7 37 -12 0 -6 8 -5 20 2
19 12 28 30 13 26 -5 0 -30 -4 -58 -8z"/>
<path d="M673 733 c37 -2 97 -2 135 0 37 2 6 3 -68 3 -74 0 -105 -1 -67 -3z"/>
<path d="M901 705 c-1 -32 14 -47 44 -43 18 2 29 10 31 21 2 18 -22 24 -28 6
-5 -15 -36 0 -41 19 -4 13 -5 13 -6 -3z"/>
<path d="M1280 706 c0 -17 22 -46 34 -46 8 0 19 6 25 14 10 12 8 13 -10 9 -15
-4 -26 0 -35 12 -8 11 -14 15 -14 11z"/>
<path d="M2101 698 c-1 -21 -31 -24 -49 -6 -13 13 -15 8 -6 -16 3 -9 14 -16
24 -16 22 0 44 25 37 42 -4 8 -6 7 -6 -4z"/>
<path d="M1074 680 c-5 -5 -27 -10 -49 -13 -26 -2 -16 -4 29 -5 38 -1 67 -1
65 1 -2 1 -11 8 -20 15 -9 7 -19 8 -25 2z"/>
<path d="M1672 673 c6 -7 18 -13 28 -13 10 0 20 6 23 13 3 8 -6 12 -28 12 -26
0 -31 -3 -23 -12z"/>
<path d="M1358 650 c-1 -3 -3 -134 -3 -291 l0 -287 44 -6 c57 -8 156 -8 215 0
l46 7 0 291 0 291 -150 0 c-82 0 -151 -2 -152 -5z m270 -95 c8 -175 3 -438 -8
-449 -14 -14 -216 -14 -230 0 -5 5 -9 87 -9 189 1 99 0 210 -1 247 -1 37 2 72
5 78 4 7 50 10 123 8 l117 -3 3 -70z"/>
</g>
</svg>
